<svg xmlns="http://www.w3.org/2000/svg" viewBox="0 0 64 64" fill="none">
  <!-- Background circle -->
  <circle cx="32" cy="32" r="32" fill="#16a34a"/>
  
  <!-- Open book -->
  <path d="M12 44 C12 44 20 40 32 42 C44 40 52 44 52 44 L52 22 C52 22 44 18 32 20 C20 18 12 22 12 22 Z" fill="#ffffff" opacity="0.95"/>
  <line x1="32" y1="20" x2="32" y2="42" stroke="#16a34a" stroke-width="1.5"/>
  <!-- Left page lines -->
  <line x1="16" y1="27" x2="29" y2="26" stroke="#16a34a" stroke-width="1" opacity="0.5"/>
  <line x1="16" y1="31" x2="29" y2="30" stroke="#16a34a" stroke-width="1" opacity="0.5"/>
  <line x1="16" y1="35" x2="29" y2="34" stroke="#16a34a" stroke-width="1" opacity="0.5"/>
  <!-- Right page lines -->
  <line x1="35" y1="26" x2="48" y2="27" stroke="#16a34a" stroke-width="1" opacity="0.5"/>
  <line x1="35" y1="30" x2="48" y2="31" stroke="#16a34a" stroke-width="1" opacity="0.5"/>
  <line x1="35" y1="34" x2="48" y2="35" stroke="#16a34a" stroke-width="1" opacity="0.5"/>
  
  <!-- Compass needle on top -->
  <circle cx="32" cy="17" r="7" fill="#ffffff" stroke="#16a34a" stroke-width="1.5"/>
  <polygon points="32,11 34,17 32,16 30,17" fill="#ef4444"/>
  <polygon points="32,23 34,17 32,18 30,17" fill="#6b7280"/>
  <circle cx="32" cy="17" r="1.5" fill="#1f2937"/>
</svg>
